<svg width="34" height="33" viewBox="0 0 34 33" fill="none" xmlns="http://www.w3.org/2000/svg">
<path d="M16.8906 0.213867C22.2344 0.213867 26.6615 2.52637 30.1719 7.15137C32.1615 10.1097 33.1562 13.1878 33.1562 16.3857C33.1562 22.0003 30.6875 26.5576 25.75 30.0576C23.8854 31.2139 22.5677 31.792 21.7969 31.792L21.4219 31.3076V27.167C21.3802 26.667 21.0885 26.0576 20.5469 25.3389C22.7969 24.9639 24.4323 24.3232 25.4531 23.417C26.8073 22.042 27.4844 20.2451 27.4844 18.0264V16.8701C27.3802 15.9535 26.9635 14.9274 26.2344 13.792C26.1406 13.792 26.0417 13.693 25.9375 13.4951C26.1354 12.8805 26.2344 12.3337 26.2344 11.8545V11.667C26.0885 10.1253 25.8646 9.35449 25.5625 9.35449C24.5104 9.35449 23.1615 9.90137 21.5156 10.9951C20.151 10.6722 19.1875 10.5107 18.625 10.5107H16.5156C16.1823 10.5107 15.25 10.6722 13.7188 10.9951C12.1562 9.90137 10.776 9.35449 9.57812 9.35449C9.30729 9.76074 9.11458 10.5628 9 11.7607V11.9639C9.1875 12.9222 9.28125 13.4326 9.28125 13.4951C8.26042 14.8493 7.75 16.292 7.75 17.8232C7.75 20.9587 8.90625 23.1097 11.2188 24.2764C11.9583 24.7243 13.0156 25.0472 14.3906 25.2451H14.6719V25.4326C14.3073 25.8389 13.9896 26.5107 13.7188 27.4482C13.1562 27.6462 12.5156 27.7451 11.7969 27.7451H11.6875C10.75 27.7451 9.79167 26.943 8.8125 25.3389C8.11458 24.7555 7.4375 24.4639 6.78125 24.4639L6.29688 24.667C6.29688 24.8441 6.78125 25.3545 7.75 26.1982C7.96875 26.4482 8.41667 27.2503 9.09375 28.6045C9.79167 29.3128 10.8854 29.667 12.375 29.667C12.7708 29.6045 13.2188 29.5732 13.7188 29.5732L13.8125 29.7607V31.5889C13.4896 31.9743 13.3281 32.2347 13.3281 32.3701C9.13021 31.193 6.02083 29.1722 4 26.3076C1.75 23.318 0.625 20.042 0.625 16.4795C0.625 10.7191 3.28646 6.03678 8.60938 2.43262C11.3802 0.953451 14.1406 0.213867 16.8906 0.213867Z" fill="#E6E0E9"/>
</svg>
