<svg width="33" height="33" viewBox="0 0 33 33" fill="none" xmlns="http://www.w3.org/2000/svg">
<path d="M16.4531 0.213867H17.2031C20.5677 0.213867 23.9271 1.51074 27.2812 4.10449C29.7708 6.60449 31.2917 8.85449 31.8438 10.8545C32.2188 11.6878 32.4688 12.641 32.5938 13.7139C32.7188 14.7764 32.7812 15.4691 32.7812 15.792V16.6357V17.3076C32.5312 19.6097 32.026 21.542 31.2656 23.1045C29.5885 26.5003 27.026 29.0628 23.5781 30.792C21.1094 31.8128 18.8906 32.3232 16.9219 32.3232H16.7344C12.7552 32.3232 9.11458 30.8649 5.8125 27.9482C3.73958 25.792 2.44271 23.891 1.92188 22.2451C1.34896 20.9639 0.96875 19.3493 0.78125 17.4014V15.4014C0.78125 12.1305 2.14062 8.80762 4.85938 5.43262C8.42188 1.95345 12.2865 0.213867 16.4531 0.213867ZM10.375 10.4639V11.042C10.5521 11.9899 11.151 12.4639 12.1719 12.4639C13.0052 12.4639 13.5781 11.9899 13.8906 11.042V10.9482C13.8906 9.96908 13.2865 9.39616 12.0781 9.22949C11.3385 9.22949 10.7708 9.64095 10.375 10.4639ZM18.5469 14.6514H18.3438V13.6982H15.3125V22.7295C15.3333 22.8545 15.3958 22.917 15.5 22.917H18.1562C18.2812 22.917 18.3438 22.8545 18.3438 22.7295V17.8857C18.5 16.5524 19.0417 15.8857 19.9688 15.8857C21.0417 15.8857 21.5781 16.5524 21.5781 17.8857V22.7295C21.599 22.8545 21.6615 22.917 21.7656 22.917H24.625V16.9326C24.625 15.8597 24.1146 14.8753 23.0938 13.9795C22.3229 13.667 21.849 13.5107 21.6719 13.5107H20.7188C19.9792 13.542 19.2552 13.9222 18.5469 14.6514ZM10.5625 13.8857V22.7295C10.5833 22.8545 10.6458 22.917 10.75 22.917H13.4062C13.5312 22.917 13.5938 22.8545 13.5938 22.7295V14.0732L13.4062 13.6982H10.75C10.625 13.7191 10.5625 13.7816 10.5625 13.8857Z" fill="#E6E0E9"/>
</svg>
