<svg width="25" height="25" viewBox="0 0 25 25" fill="none" xmlns="http://www.w3.org/2000/svg">
<path d="M16.5 13.5201V17.7201C16.5 21.2201 15.1 22.6201 11.6 22.6201H7.4C3.9 22.6201 2.5 21.2201 2.5 17.7201V13.5201C2.5 10.0201 3.9 8.62012 7.4 8.62012H11.6C15.1 8.62012 16.5 10.0201 16.5 13.5201Z" stroke="#E6E0E9" stroke-width="1.5" stroke-linecap="round" stroke-linejoin="round"/>
<path d="M22.5 7.52012V11.7201C22.5 15.2201 21.1 16.6201 17.6 16.6201H16.5V13.5201C16.5 10.0201 15.1 8.62012 11.6 8.62012H8.5V7.52012C8.5 4.02012 9.9 2.62012 13.4 2.62012H17.6C21.1 2.62012 22.5 4.02012 22.5 7.52012Z" stroke="#E6E0E9" stroke-width="1.5" stroke-linecap="round" stroke-linejoin="round"/>
</svg>
