<svg width="33" height="33" viewBox="0 0 33 33" fill="none" xmlns="http://www.w3.org/2000/svg">
<path d="M16.4062 0.213867H17.0625C20.6458 0.213867 24.1042 1.57845 27.4375 4.30762C30.9792 7.90137 32.75 11.6722 32.75 15.6201V17.1514C32.75 19.443 31.8646 22.1357 30.0938 25.2295C27.9062 28.3545 24.9271 30.5107 21.1562 31.6982C19.4062 32.1357 17.9479 32.3545 16.7812 32.3545H16.6875C12.3229 32.3545 8.42188 30.6462 4.98438 27.2295C2.06771 23.8962 0.609375 20.2503 0.609375 16.292C0.609375 12.0628 2.26042 8.19303 5.5625 4.68262C9 1.70345 12.6146 0.213867 16.4062 0.213867ZM8.14062 7.24512L15.0781 16.5576V16.6201L8.07812 24.2451H9.57812L15.8281 17.5576C19.1406 21.9951 20.8281 24.2243 20.8906 24.2451H26.2031L18.8281 14.3076V14.2451C19.0885 14.0264 21.2552 11.693 25.3281 7.24512H23.8281L18.1406 13.3076H18.0156C15.2135 9.46387 13.6927 7.44303 13.4531 7.24512H8.14062ZM10.5781 8.37012H12.8906C20.1823 18.0368 23.8281 22.9326 23.8281 23.0576H21.4531C21.3073 22.9535 17.6406 18.0785 10.4531 8.43262L10.5781 8.37012Z" fill="#E6E0E9"/>
</svg>
