<svg width="39" height="40" viewBox="0 0 39 40" fill="none" xmlns="http://www.w3.org/2000/svg">
<rect x="0.191956" y="0.232544" width="38.8088" height="38.8088" rx="5.38044" fill="white"/>
<path d="M19.3525 30.6006H20.3065C20.9857 30.6006 21.6252 30.2836 22.0359 29.7427L28.0877 21.7813L34.1394 29.7427C34.5501 30.2828 35.1897 30.6006 35.8688 30.6006H36.8229L29.1024 20.4456L36.4768 10.7434H35.5228C34.8436 10.7434 34.2041 11.0603 33.7934 11.6012L28.0869 19.1091L22.3796 11.6004C21.9688 11.0603 21.3293 10.7434 20.6501 10.7434H19.6961L27.0706 20.4456L19.3525 30.6006Z" fill="#212121"/>
<path d="M19.5972 21.2539V18.8284C19.5972 13.4315 14.7906 9.1577 9.22477 10.0543C4.89194 10.7521 1.80988 14.6702 1.80988 19.058V19.6369V21.2539V21.3687C1.80988 26.6669 5.67216 30.8979 10.5968 30.9561C14.7138 31.0046 18.188 28.2524 19.2536 24.4888H18.4225C17.9212 24.4888 17.4668 24.7758 17.2493 25.2269C15.8433 28.1336 12.5688 29.9665 8.97979 29.1418C5.67135 28.381 3.42691 25.2811 3.42691 21.887V21.2539H19.5972ZM3.42691 19.4024C3.42691 15.5959 5.69399 12.4839 9.02507 11.7393C13.7743 10.6785 17.9802 14.2619 17.9802 18.8284V19.6369H3.42691V19.4024Z" fill="#212121"/>
</svg>
