<svg width="73" height="40" viewBox="0 0 73 40" fill="none" xmlns="http://www.w3.org/2000/svg">
<path fill-rule="evenodd" clip-rule="evenodd" d="M31.0286 12.7715C29.9035 13.0865 28.7625 13.4056 27.4417 13.7644C26.7966 13.9471 26.6497 13.9886 26.0494 13.2587C25.3293 12.399 24.8012 11.8428 23.7928 11.3368C20.768 9.76887 17.8391 10.2241 15.1024 12.0956C11.8377 14.3209 10.1572 17.6084 10.2053 21.7051C10.2531 25.7515 12.8939 29.0897 16.6871 29.6458C19.9518 30.1011 22.6885 28.8873 24.849 26.3079C25.281 25.7518 25.6655 25.1442 26.1455 24.4364H16.879C15.8706 24.4364 15.6306 23.7791 15.9667 22.919C16.5909 21.3511 17.7433 18.7213 18.4153 17.4063C18.5595 17.1026 18.8956 16.5969 19.6157 16.5969H35.0663C35.7604 14.2803 36.8864 12.0915 38.3887 10.0202C41.8938 5.16458 46.1189 2.63571 51.8322 1.57382C56.7297 0.663294 61.3388 1.16901 65.5158 4.15315C69.309 6.88444 71.6614 10.5764 72.2857 15.4321C73.1019 22.2598 71.2295 27.8236 66.7643 32.5777C63.5954 35.9664 59.7064 38.0908 55.2412 39.0517C54.3895 39.2177 53.5378 39.2965 52.6995 39.3741C52.2621 39.4148 51.8284 39.4548 51.4003 39.507C47.0309 39.4058 43.0461 38.0908 39.6849 35.0562C37.3214 32.9037 35.6935 30.2587 34.8842 27.1797C34.3226 28.3744 33.6512 29.5184 32.8673 30.6068C29.4103 35.4117 24.897 38.3959 19.1837 39.2052C14.4782 39.8626 10.1092 38.9016 6.26812 35.867C2.71518 33.0345 0.698641 29.2918 0.170505 24.6388C-0.453669 19.1258 1.08273 14.1693 4.25158 9.81962C7.6606 5.11592 12.1738 2.13178 17.6952 1.0696C22.2084 0.209822 26.5294 0.76629 30.4187 3.54803C32.9631 5.31803 34.7878 7.74601 35.9882 10.6794C36.2762 11.1347 36.084 11.3875 35.5078 11.5392C33.8253 11.9894 32.4395 12.3772 31.0286 12.7715ZM62.7938 18.5326C62.8034 18.7025 62.8132 18.8816 62.8272 19.0736C62.5872 23.4232 60.5226 26.6602 56.7297 28.7338C54.185 30.0993 51.5442 30.2513 48.9036 29.0374C45.4466 27.4188 43.622 23.4232 44.4862 19.4781C45.5427 14.7239 48.4233 11.7398 52.8885 10.6776C57.4497 9.56497 61.8191 12.3972 62.6833 17.4045C62.7511 17.7627 62.7711 18.1206 62.7938 18.5326Z" fill="#00ACD7"/>
</svg>
