<svg width="40" height="40" viewBox="0 0 40 40" fill="none" xmlns="http://www.w3.org/2000/svg">
<path d="M33.6111 0.698242H6.44497C3.22995 0.698242 0.623657 3.30453 0.623657 6.51956V33.6857C0.623657 36.9007 3.22995 39.507 6.44497 39.507H33.6111C36.8261 39.507 39.4324 36.9007 39.4324 33.6857V6.51956C39.4324 3.30453 36.8261 0.698242 33.6111 0.698242Z" fill="#F7DF1E"/>
<path d="M25.1823 28.7434C25.9403 30.032 27.0015 30.9416 28.7448 30.9416C30.2608 30.9416 31.2462 30.1836 31.2462 29.1224C31.2462 27.9096 30.2608 27.4548 28.5932 26.6968L27.6837 26.3179C25.0307 25.1809 23.2874 23.8165 23.2874 20.8604C23.2874 18.1316 25.3339 16.0093 28.5932 16.0093C30.943 16.0093 32.6105 16.8431 33.7475 18.9654L30.943 20.7846C30.3366 19.6476 29.6544 19.1928 28.5932 19.1928C27.5321 19.1928 26.8499 19.875 26.8499 20.7846C26.8499 21.8458 27.5321 22.3005 29.1238 22.9827L30.0334 23.3617C33.1411 24.7261 34.8845 26.0147 34.8845 29.1224C34.8845 32.3817 32.3074 34.2009 28.8206 34.2009C25.4097 34.2009 23.2116 32.6091 22.1504 30.4868L25.1823 28.7434ZM12.2966 29.0466C12.903 30.032 13.3578 30.9416 14.6463 30.9416C15.8591 30.9416 16.6171 30.4868 16.6171 28.6676V16.0851H20.2554V28.516C20.2554 32.3059 18.0573 33.9735 14.7979 33.9735C11.8418 33.9735 10.1742 32.4575 9.34045 30.6384L12.2966 29.0466Z" fill="black"/>
</svg>
