<svg width="40" height="40" viewBox="0 0 40 40" fill="none" xmlns="http://www.w3.org/2000/svg">
<path d="M19.7744 39.5758C30.4912 39.5758 39.1788 30.8882 39.1788 20.1715C39.1788 9.45473 30.4912 0.76709 19.7744 0.76709C9.05769 0.76709 0.370056 9.45473 0.370056 20.1715C0.370056 30.8882 9.05769 39.5758 19.7744 39.5758Z" fill="#13AA52"/>
<path d="M24.9612 17.8003C23.7355 12.391 20.8389 10.6124 20.527 9.93284C20.1859 9.45342 19.8403 8.60068 19.8403 8.60068C19.8346 8.58628 19.8255 8.56089 19.8149 8.53625C19.7796 9.01568 19.7614 9.20063 19.3082 9.68422C18.6063 10.233 15.0051 13.2547 14.7121 19.4004C14.4389 25.1323 18.8526 28.5478 19.4495 28.9832L19.5174 29.0314V29.0272C19.5211 29.056 19.7069 30.3916 19.8372 31.8067H20.3049C20.4146 30.8064 20.5791 29.8128 20.7976 28.8305L20.8355 28.8059C21.1025 28.6144 21.3571 28.4062 21.5976 28.1824L21.6249 28.1578C22.8938 26.9856 25.1749 24.2743 25.1526 19.9515C25.1479 19.2304 25.0838 18.5109 24.9612 17.8003ZM19.7876 25.747C19.7876 25.747 19.7876 17.7079 20.0529 17.7094C20.2598 17.7094 20.5277 28.079 20.5277 28.079C20.1594 28.0346 19.7876 26.3724 19.7876 25.747Z" fill="white"/>
</svg>
