<svg width="40" height="40" viewBox="0 0 40 40" fill="none" xmlns="http://www.w3.org/2000/svg">
<mask id="mask0_205_13663" style="mask-type:luminance" maskUnits="userSpaceOnUse" x="0" y="0" width="40" height="40">
<path d="M39.0876 0.232544H0.278809V39.0413H39.0876V0.232544Z" fill="white"/>
</mask>
<g mask="url(#mask0_205_13663)">
<path d="M19.6832 37.5258C29.5627 37.5258 37.5716 29.5169 37.5716 19.6374C37.5716 9.75794 29.5627 1.74902 19.6832 1.74902C9.80371 1.74902 1.7948 9.75794 1.7948 19.6374C1.7948 29.5169 9.80371 37.5258 19.6832 37.5258Z" fill="black" stroke="black" stroke-width="2.42555" stroke-linecap="round" stroke-linejoin="round"/>
<path d="M26.0624 26.9139V12.3606V26.9139Z" fill="black"/>
<path d="M26.0624 26.9139V12.3606" stroke="url(#paint0_linear_205_13663)" stroke-width="2.42555" stroke-miterlimit="1.41421" stroke-linejoin="round"/>
<path fill-rule="evenodd" clip-rule="evenodd" d="M14.8202 12.3627L11.7883 12.3606V26.9139H14.8202V17.134L30.2625 35.9068C31.1126 35.3531 31.9164 34.7343 32.6674 34.0578L14.8202 12.3627Z" fill="url(#paint1_linear_205_13663)"/>
</g>
<defs>
<linearGradient id="paint0_linear_205_13663" x1="-nan" y1="-nan" x2="-nan" y2="-nan" gradientUnits="userSpaceOnUse">
<stop stop-color="white"/>
<stop offset="0.609375" stop-color="white" stop-opacity="0.57"/>
<stop offset="0.796875" stop-color="white" stop-opacity="0"/>
<stop offset="1" stop-color="white" stop-opacity="0"/>
</linearGradient>
<linearGradient id="paint1_linear_205_13663" x1="24.3829" y1="22.2144" x2="33.1632" y2="32.7333" gradientUnits="userSpaceOnUse">
<stop stop-color="white"/>
<stop offset="1" stop-color="white" stop-opacity="0"/>
</linearGradient>
</defs>
</svg>
