<svg width="37" height="40" viewBox="0 0 37 40" fill="none" xmlns="http://www.w3.org/2000/svg">
<path d="M19.9169 0.646581C18.9331 0.093292 17.6505 0.095773 16.6659 0.646581C11.7344 3.36812 6.80276 6.09047 1.87036 8.81076C0.910578 9.31567 0.263233 10.3464 0.273559 11.4161V27.86C0.266629 28.9506 0.947349 29.9913 1.93189 30.4893C3.34863 31.243 4.72508 32.0732 6.16744 32.7768C7.83354 33.5955 9.91802 33.7765 11.6045 32.9227C12.9735 32.2151 13.5815 30.6413 13.5797 29.195C13.5908 23.7681 13.5815 18.3411 13.584 12.9141C13.6166 12.673 13.4354 12.4152 13.1724 12.421C12.5421 12.411 11.9111 12.4152 11.2809 12.4193C11.0427 12.3969 10.8103 12.5947 10.8283 12.834C10.8199 18.226 10.83 23.6196 10.8232 29.0123C10.8369 29.7583 10.333 30.4751 9.61406 30.7271C7.95369 31.3091 3.21456 28.232 3.21456 28.232C3.04064 28.1514 2.9302 27.9628 2.94725 27.7754C2.94725 22.3502 2.94809 16.9249 2.94725 11.5005C2.92334 11.2818 3.05813 11.0849 3.25897 10.9956C8.17425 8.29008 13.087 5.57782 18.0023 2.87066C18.173 2.75671 18.411 2.75706 18.5813 2.87149C23.4966 5.57782 28.4102 8.2876 33.3263 10.9932C33.5279 11.0824 33.6569 11.2827 33.6364 11.5005C33.6355 16.9249 33.638 22.3502 33.6347 27.7747C33.6493 27.9667 33.55 28.1527 33.3708 28.237C28.5014 30.9278 23.5766 33.5319 18.7513 36.3009C18.5407 36.4216 18.3022 36.5584 18.0663 36.4253C16.7974 35.7235 15.5439 34.9943 14.2791 34.2856C14.1416 34.1998 13.9666 34.1629 13.8231 34.259C13.2561 34.5578 12.7227 34.7998 12.0716 35.0576C11.1571 35.4196 11.3032 35.5677 12.128 36.0482C13.607 36.8852 15.0886 37.7189 16.5676 38.5568C17.5413 39.1644 18.8495 39.2077 19.8545 38.6462C24.7869 35.928 29.7177 33.2067 34.651 30.4886C35.6328 29.9878 36.317 28.9513 36.31 27.8598V11.4161C36.3196 10.3681 35.697 9.35576 34.7661 8.84337C29.8175 6.10857 24.8664 3.37972 19.9169 0.646581Z" fill="#8CC84B"/>
<path d="M27.3596 12.9932C25.4237 11.9575 23.1207 11.9024 20.9694 12.0378C19.4153 12.1914 17.7807 12.6202 16.6485 13.7343C15.4871 14.8542 15.2343 16.6627 15.786 18.1247C16.1813 19.1578 17.1763 19.8296 18.2053 20.185C19.5307 20.6529 20.9229 20.7976 22.3154 20.9423C23.5856 21.0743 24.8561 21.2064 26.0769 21.5838C26.5756 21.749 27.1564 22.0018 27.3091 22.5444C27.4502 23.187 27.2955 23.9339 26.7738 24.3804C25.1167 25.692 20.507 25.491 18.8697 24.4587C18.2078 24.0189 17.9225 23.2404 17.8065 22.4984C17.7936 22.2672 17.6075 22.0552 17.3565 22.0728C16.7279 22.0653 16.0993 22.0669 15.4708 22.0719C15.2515 22.0535 15.0235 22.2096 15.0114 22.4334C14.8823 25.8315 18.0032 27.3129 20.9312 27.6391C22.604 27.7984 24.3135 27.7893 25.9608 27.4303C27.1991 27.1484 28.4407 26.6292 29.2931 25.6755C30.3442 24.5163 30.5509 22.7906 30.0795 21.3468C29.7191 20.2694 28.6892 19.5783 27.6364 19.2228C26.2046 18.7319 24.5078 18.468 23.2111 18.3445C21.3262 18.165 19.0864 18.2383 18.5529 16.9998C18.3401 16.3512 18.5211 15.546 19.1171 15.1471C20.694 14.0775 23.9034 14.2195 25.5364 15.0186C26.2862 15.394 26.7207 16.1652 26.9001 16.9438C26.9334 17.1725 27.0872 17.4111 27.3519 17.4012C27.9762 17.4136 28.6005 17.4045 29.2246 17.4053C29.439 17.4203 29.6738 17.2993 29.7157 17.0797C29.6892 15.4525 28.8583 13.7868 27.3596 12.9932Z" fill="#8CC84B"/>
</svg>
