<svg width="38" height="40" viewBox="0 0 38 40" fill="none" xmlns="http://www.w3.org/2000/svg">
<path d="M37.6917 24.0143C37.4655 23.3292 36.8729 22.8519 36.1064 22.7373C35.745 22.6834 35.331 22.7064 34.8413 22.8074C33.9876 22.9835 33.3543 23.0505 32.8921 23.0636C34.6367 20.1179 36.0554 16.7587 36.8721 13.5966C38.1926 8.48377 37.487 6.15452 36.6623 5.10087C34.4799 2.31229 31.2958 0.81412 27.4543 0.768196C25.4052 0.743186 23.6061 1.14779 22.6677 1.43868C21.794 1.28461 20.8544 1.19851 19.8685 1.18256C18.0208 1.15311 16.3881 1.55588 14.993 2.38374C14.2205 2.12266 12.9811 1.75448 11.5496 1.51946C8.18271 0.966708 5.46925 1.39746 3.48447 2.79959C1.08107 4.49731 -0.0331474 7.44694 0.172946 11.5666C0.238304 12.8747 0.970045 16.8542 2.12208 20.6285C2.78419 22.7977 3.49023 24.5992 4.22057 25.9833C5.25627 27.9458 6.36447 29.1016 7.60861 29.5166C8.30602 29.749 9.573 29.9116 10.9057 28.8019C11.0746 29.0063 11.2998 29.2096 11.599 29.3984C11.9788 29.638 12.4432 29.8337 12.907 29.9497C14.5787 30.3676 16.1445 30.263 17.4803 29.6773C17.4885 29.9149 17.4948 30.1419 17.5002 30.3379C17.5091 30.6559 17.5178 30.9676 17.5295 31.2591C17.6086 33.2304 17.7428 34.7632 18.1401 35.8356C18.1619 35.8947 18.1913 35.9845 18.2223 36.0798C18.4205 36.6868 18.752 37.7029 19.5953 38.4988C20.4688 39.323 21.5251 39.5759 22.4926 39.5758C22.9778 39.5758 23.4408 39.5122 23.8468 39.4252C25.2943 39.115 26.9382 38.6424 28.1273 36.9492C29.2516 35.3484 29.7981 32.9375 29.8971 29.1386C29.9099 29.0313 29.9217 28.9287 29.9331 28.8309C29.9408 28.765 29.9486 28.6975 29.9566 28.6302L30.2215 28.6535L30.2897 28.6581C31.764 28.7253 33.5667 28.4126 34.6737 27.8984C35.5485 27.4924 38.3518 26.0125 37.6917 24.0143Z" fill="black"/>
<path d="M35.1709 24.4033C30.7874 25.3075 30.486 23.8234 30.486 23.8234C35.1143 16.9558 37.0491 8.23845 35.3794 6.10492C30.8244 0.285062 22.9395 3.03748 22.8079 3.10894L22.7656 3.11652C21.8996 2.93674 20.9304 2.82964 19.8411 2.81187C17.8576 2.77936 16.3531 3.33185 15.2114 4.19762C15.2114 4.19762 1.14554 -1.59697 1.79972 11.4854C1.93889 14.2686 5.78879 32.5442 10.3808 27.0241C12.0592 25.0056 13.6808 23.2989 13.6808 23.2989C14.4863 23.8339 15.4505 24.1069 16.4614 24.0088L16.5399 23.9422C16.5155 24.1928 16.5267 24.4379 16.5714 24.7281C15.3884 26.0498 15.736 26.2819 13.3712 26.7687C10.9783 27.2618 12.384 28.1398 13.3018 28.3692C14.4145 28.6475 16.9886 29.0416 18.7279 26.6068L18.6585 26.8846C19.122 27.2559 19.4475 29.2995 19.393 31.152C19.3384 33.0045 19.302 34.2764 19.6672 35.2698C20.0324 36.2633 20.3964 38.4985 23.5052 37.8324C26.1028 37.2757 27.4489 35.8331 27.6362 33.4268C27.7691 31.7161 28.0698 31.969 28.0888 30.4396L28.33 29.7155C28.6082 27.3965 28.3742 26.6484 29.9746 26.9964L30.3635 27.0305C31.5414 27.0841 33.0831 26.8411 33.9879 26.4205C35.9362 25.5163 37.0918 24.0067 35.1707 24.4033H35.1709Z" fill="#336791"/>
<path d="M16.0347 12.7295C15.6398 12.6746 15.282 12.7254 15.101 12.8624C14.9991 12.9396 14.9676 13.0289 14.9592 13.0904C14.9364 13.2533 15.0506 13.4333 15.1207 13.5262C15.319 13.7891 15.6088 13.9699 15.8957 14.0097C15.9373 14.0154 15.9786 14.0182 16.0197 14.0182C16.4981 14.0182 16.933 13.6458 16.9713 13.3708C17.0192 13.0265 16.5194 12.797 16.0347 12.7295Z" fill="white"/>
<path d="M29.1209 12.7405C29.0833 12.4706 28.6028 12.3937 28.1471 12.457C27.692 12.5205 27.2506 12.7259 27.2875 12.9964C27.3171 13.2067 27.6968 13.5659 28.1465 13.5658C28.1844 13.5658 28.2227 13.5632 28.2613 13.5578C28.5614 13.5163 28.7817 13.3257 28.8862 13.2158C29.0456 13.0485 29.1377 12.8618 29.1209 12.7405Z" fill="white"/>
<path d="M36.6293 24.3001C36.4621 23.7947 35.9242 23.632 35.0304 23.8167C32.3765 24.3644 31.4261 23.9849 31.114 23.7551C33.1768 20.6126 34.8738 16.8141 35.7892 13.2699C36.2229 11.5911 36.4625 10.032 36.482 8.76128C36.5036 7.3663 36.2662 6.3414 35.7761 5.71528C33.8007 3.19109 30.9015 1.83715 27.392 1.79994C24.9794 1.77284 22.9409 2.39033 22.5457 2.56392C21.7135 2.35696 20.8063 2.2299 19.8187 2.21369C18.0074 2.18441 16.4419 2.61804 15.1456 3.50184C14.5826 3.29235 13.1275 2.79285 11.3481 2.50623C8.27157 2.01082 5.82695 2.38615 4.08234 3.6221C2.00066 5.09691 1.03965 7.73317 1.22587 11.4575C1.28853 12.7106 2.0024 16.5652 3.12917 20.2568C4.61226 25.1154 6.22432 27.866 7.92065 28.4318C8.11916 28.498 8.34817 28.5444 8.60054 28.5444C9.21934 28.5444 9.97792 28.2654 10.7673 27.3165C12.0783 25.7392 13.3024 24.4175 13.7537 23.9373C14.4205 24.2953 15.1529 24.4951 15.9023 24.5151C15.9036 24.5347 15.9056 24.5543 15.9073 24.5739C15.757 24.7521 15.6337 24.9084 15.5286 25.0418C15.0095 25.7008 14.9014 25.838 13.2304 26.1821C12.7551 26.2801 11.4925 26.5403 11.4741 27.4253C11.454 28.3921 12.9663 28.7982 13.1387 28.8413C13.7392 28.9916 14.3177 29.0657 14.8694 29.0657C16.2112 29.0656 17.3919 28.6247 18.3356 27.7715C18.3065 31.2184 18.4502 34.615 18.8641 35.6499C19.203 36.497 20.0311 38.5676 22.6469 38.5674C23.0306 38.5674 23.4531 38.5228 23.9179 38.4232C26.6477 37.8378 27.8331 36.6313 28.2918 33.9714C28.5372 32.5498 28.9583 29.1551 29.1563 27.3342C29.5743 27.4646 30.1125 27.5243 30.6943 27.5242C31.9077 27.5242 33.3077 27.2664 34.1858 26.8588C35.1721 26.4008 36.9521 25.2767 36.6293 24.3001ZM30.1283 11.9955C30.1192 12.5331 30.0453 13.0211 29.9668 13.5305C29.8825 14.0784 29.7952 14.6448 29.7732 15.3325C29.7515 16.0017 29.8351 16.6974 29.9159 17.3702C30.0792 18.7291 30.2468 20.1282 29.598 21.5087C29.4972 21.3296 29.3999 21.1342 29.3106 20.9178C29.23 20.7224 29.055 20.4084 28.8126 19.9738C27.8694 18.2824 25.6607 14.3214 26.7913 12.705C27.1281 12.2238 27.9828 11.7293 30.1283 11.9955ZM27.5277 2.88853C30.6722 2.95798 33.1595 4.13433 34.9207 6.38472C36.2714 8.11085 34.784 15.9651 30.4782 22.7409C30.4357 22.6869 30.3924 22.6323 30.3476 22.5764C30.3297 22.554 30.3115 22.5312 30.2931 22.5082C31.4057 20.6706 31.1881 18.8526 30.9945 17.2406C30.9149 16.5791 30.8398 15.9543 30.8589 15.3674C30.8787 14.7452 30.961 14.2118 31.0404 13.6959C31.1383 13.0601 31.2377 12.4024 31.2103 11.6269C31.2308 11.5456 31.239 11.4495 31.2283 11.3354C31.1583 10.5917 30.3093 8.36635 28.5788 6.35186C27.6324 5.2502 26.2519 4.01721 24.3672 3.1856C25.1779 3.01759 26.2865 2.86091 27.5277 2.88853ZM9.932 26.622C9.0624 27.6675 8.46181 27.4672 8.26434 27.4014C6.9775 26.9721 5.48447 24.2525 4.16809 19.9397C3.02904 16.2079 2.36335 12.4555 2.31072 11.4032C2.14436 8.07538 2.95105 5.75606 4.70846 4.50974C7.5685 2.48148 12.2708 3.69548 14.1602 4.31123C14.133 4.33798 14.1048 4.36308 14.0778 4.39027C10.9774 7.52158 11.0509 12.8715 11.0585 13.1984C11.0582 13.3246 11.0688 13.5033 11.0833 13.749C11.1367 14.6488 11.2359 16.3235 10.9707 18.2201C10.7242 19.9825 11.2675 21.7074 12.461 22.9527C12.5846 23.0816 12.7135 23.2027 12.8468 23.3165C12.3155 23.8855 11.1609 25.1436 9.932 26.622ZM13.2453 22.2011C12.2833 21.1975 11.8464 19.8014 12.0465 18.3705C12.3266 16.367 12.2232 14.6221 12.1677 13.6847C12.1599 13.5535 12.153 13.4386 12.1489 13.3479C12.6019 12.9463 14.7009 11.8216 16.1978 12.1646C16.881 12.3211 17.2971 12.7862 17.4701 13.5863C18.3658 17.7285 17.5888 19.455 16.9644 20.8423C16.8357 21.1281 16.7141 21.3983 16.6102 21.6778L16.5298 21.8938C16.326 22.4401 16.1365 22.948 16.019 23.4304C14.9965 23.4272 14.0017 22.9905 13.2453 22.2011ZM13.4022 27.7874C13.1037 27.7128 12.8351 27.5833 12.6775 27.4758C12.8091 27.4138 13.0434 27.3297 13.4495 27.246C15.4154 26.8412 15.7189 26.5557 16.3819 25.7139C16.534 25.5209 16.7063 25.3021 16.9448 25.0356L16.9451 25.0353C17.3006 24.6374 17.4631 24.7048 17.7579 24.8271C17.9968 24.926 18.2295 25.2254 18.3239 25.555C18.3685 25.7106 18.4187 26.0061 18.2546 26.2359C16.8696 28.175 14.8516 28.1501 13.4022 27.7874ZM23.6902 37.3611C21.2853 37.8763 20.4338 36.6493 19.8727 35.2465C19.5105 34.3409 19.3326 30.2571 19.4588 25.7473C19.4605 25.6873 19.452 25.6293 19.4354 25.5749C19.421 25.4697 19.3989 25.3633 19.3682 25.2562C19.1803 24.6 18.7227 24.0511 18.1737 23.8235C17.9556 23.7332 17.5552 23.5673 17.0741 23.6904C17.1767 23.2677 17.3547 22.7904 17.5475 22.2734L17.6285 22.0559C17.7196 21.8108 17.8339 21.5569 17.9548 21.2881C18.6082 19.8365 19.5031 17.8483 18.5319 13.3567C18.1681 11.6744 16.9533 10.8529 15.1117 11.0437C14.0076 11.1579 12.9976 11.6034 12.4938 11.8588C12.3855 11.9137 12.2864 11.9667 12.1939 12.0183C12.3345 10.3232 12.8658 7.1555 14.853 5.15129C16.1041 3.88946 17.7704 3.2663 19.8007 3.29985C23.801 3.36538 26.3662 5.4183 27.814 7.129C29.0614 8.60321 29.7369 10.0881 30.0066 10.889C27.9792 10.6829 26.6003 11.0831 25.9013 12.0824C24.3806 14.2561 26.7332 18.4752 27.8639 20.5029C28.0712 20.8745 28.2502 21.1957 28.3065 21.3321C28.6747 22.2245 29.1513 22.8202 29.4994 23.2551C29.6061 23.3884 29.7096 23.5176 29.7883 23.6304C29.1743 23.8075 28.0713 24.2165 28.1718 26.2609C28.0907 27.2869 27.5142 32.0899 27.2214 33.7868C26.8348 36.0286 26.0098 36.8637 23.6902 37.3611ZM33.7284 25.8736C33.1005 26.1651 32.0497 26.3837 31.0515 26.4306C29.949 26.4823 29.3878 26.3071 29.2557 26.1994C29.1937 24.9254 29.668 24.7922 30.1699 24.6513C30.2487 24.6291 30.3257 24.6076 30.3999 24.5816C30.4461 24.6192 30.4967 24.6565 30.552 24.693C31.4382 25.2779 33.0188 25.341 35.2501 24.8804C35.2583 24.8787 35.2664 24.8771 35.2745 24.8755C34.9736 25.1568 34.4586 25.5345 33.7284 25.8736Z" fill="white"/>
</svg>
