<svg width="33" height="40" viewBox="0 0 33 40" fill="none" xmlns="http://www.w3.org/2000/svg">
<path fill-rule="evenodd" clip-rule="evenodd" d="M29.6637 31.015L12.382 36.1672C12.2616 36.2037 12.1338 36.2084 12.011 36.1808C11.8883 36.1531 11.7748 36.0941 11.6817 36.0095C11.5886 35.9249 11.519 35.8176 11.4797 35.698C11.4405 35.5785 11.4329 35.4508 11.4577 35.3275L17.6326 5.51858C17.6587 5.39682 17.7223 5.2863 17.8145 5.20255C17.9067 5.11879 18.0227 5.06603 18.1465 5.05165C18.2702 5.03728 18.3952 5.06202 18.5042 5.12241C18.6131 5.1828 18.7003 5.27579 18.7537 5.38832L30.1847 29.8621C30.236 29.9709 30.263 30.0895 30.264 30.2098C30.2649 30.3301 30.2397 30.4491 30.1902 30.5588C30.1407 30.6684 30.0679 30.7659 29.977 30.8447C29.8861 30.9235 29.7792 30.9816 29.6637 31.015ZM32.6278 29.7983L19.3953 1.4611C19.2326 1.11159 18.9778 0.812996 18.6582 0.59741C18.3386 0.381824 17.9663 0.257393 17.5813 0.237486C17.1963 0.211005 16.8114 0.29131 16.4691 0.469555C16.1268 0.6478 15.8403 0.917068 15.6413 1.2477L1.29182 24.6932C1.07293 25.0481 0.959088 25.4578 0.963503 25.8747C0.967917 26.2917 1.0904 26.6988 1.31676 27.049L8.33421 38.0089C8.59863 38.4185 8.98863 38.7314 9.44579 38.9008C9.90295 39.0702 10.4027 39.0869 10.8701 38.9484L31.2407 32.8747C31.5483 32.7851 31.8329 32.6298 32.0748 32.4197C32.3167 32.2095 32.5102 31.9494 32.6419 31.6573C32.7736 31.3651 32.8404 31.0479 32.8378 30.7275C32.8351 30.407 32.763 30.091 32.6264 29.8011L32.6278 29.7983Z" fill="#0C344B"/>
</svg>
