<svg width="40" height="40" viewBox="0 0 40 40" fill="none" xmlns="http://www.w3.org/2000/svg">
<path fill-rule="evenodd" clip-rule="evenodd" d="M15.6973 0.698242C12.652 0.698242 10.1834 3.08849 10.1834 6.03701V9.73309H19.7266V10.7598H5.94203C2.89683 10.7598 0.428223 13.15 0.428223 16.0985V24.1067C0.428223 27.0552 2.89683 29.4454 5.94203 29.4454H9.12308V24.9281C9.12308 21.9796 11.5917 19.5892 14.6369 19.5892H24.8162C27.393 19.5892 29.4817 17.5668 29.4817 15.0719V6.03701C29.4817 3.08849 27.0132 0.698242 23.968 0.698242H15.6973ZM14.4249 7.26904C15.479 7.26904 16.3334 6.44164 16.3334 5.42101C16.3334 4.40036 15.479 3.57296 14.4249 3.57296C13.3707 3.57296 12.5162 4.40036 12.5162 5.42101C12.5162 6.44164 13.3707 7.26904 14.4249 7.26904Z" fill="url(#paint0_linear_205_13640)"/>
<path fill-rule="evenodd" clip-rule="evenodd" d="M23.9675 39.5067C27.0128 39.5067 29.4814 37.1165 29.4814 34.168V30.4719H19.9382V29.4453H33.7228C36.768 29.4453 39.2365 27.0549 39.2365 24.1064V16.0982C39.2365 13.1498 36.768 10.7595 33.7228 10.7595H30.5417V15.2769C30.5417 18.2255 28.0731 20.6157 25.028 20.6157H14.8486C12.2718 20.6157 10.183 22.6382 10.183 25.1331V34.168C10.183 37.1165 12.6517 39.5067 15.6968 39.5067H23.9675ZM25.24 32.936C24.1858 32.936 23.3313 33.7633 23.3313 34.784C23.3313 35.8046 24.1858 36.632 25.24 36.632C26.2941 36.632 27.1486 35.8046 27.1486 34.784C27.1486 33.7633 26.2941 32.936 25.24 32.936Z" fill="url(#paint1_linear_205_13640)"/>
<defs>
<linearGradient id="paint0_linear_205_13640" x1="14.955" y1="0.698242" x2="14.955" y2="29.4454" gradientUnits="userSpaceOnUse">
<stop stop-color="#327EBD"/>
<stop offset="1" stop-color="#1565A7"/>
</linearGradient>
<linearGradient id="paint1_linear_205_13640" x1="24.7099" y1="10.7595" x2="24.7099" y2="39.5067" gradientUnits="userSpaceOnUse">
<stop stop-color="#FFDA4B"/>
<stop offset="1" stop-color="#F9C600"/>
</linearGradient>
</defs>
</svg>
