<svg width="33" height="33" viewBox="0 0 33 33" fill="none" xmlns="http://www.w3.org/2000/svg">
<path d="M15.4375 0.260742H17.7344C20.1927 0.260742 22.9896 1.27637 26.125 3.30762C28.4896 5.15137 30.2031 7.28158 31.2656 9.69824C32.224 12.0003 32.7031 13.943 32.7031 15.5264V16.8545C32.7031 20.417 31.2396 23.9482 28.3125 27.4482C24.9167 30.7503 20.974 32.4014 16.4844 32.4014C10.8802 32.4014 6.30208 29.792 2.75 24.5732C1.22917 21.7607 0.46875 18.9951 0.46875 16.2764C0.46875 11.7972 2.3125 7.76074 6 4.16699C9.4375 1.56283 12.5833 0.260742 15.4375 0.260742ZM8 14.1826V19.1514C8 21.8597 8.85938 23.667 10.5781 24.5732C11.349 25.0107 13.8281 25.1722 18.0156 25.0576C21.224 25.0576 23.0677 24.7087 23.5469 24.0107C24.6302 23.1462 25.1719 21.7139 25.1719 19.7139V13.3232C25.1719 10.8024 24.2812 9.15137 22.5 8.37012L21.3125 7.97949L20.1094 7.88574H13.1562C10.6771 7.88574 9.02083 9.09408 8.1875 11.5107C8.0625 12.2503 8 13.141 8 14.1826ZM13.4375 9.41699H20.1094C22.526 9.41699 23.7344 10.6878 23.7344 13.2295V19.9951C23.4115 22.3493 22.4271 23.5264 20.7812 23.5264H18.0156C16.724 23.5264 15.3594 23.5576 13.9219 23.6201C11.526 23.6201 10.125 22.8597 9.71875 21.3389C9.59375 20.4951 9.53125 19.2243 9.53125 17.5264V15.417C9.53125 12.2399 9.78646 10.6514 10.2969 10.6514C10.8073 9.82845 11.8542 9.41699 13.4375 9.41699ZM20.2031 11.9951C20.4844 12.6305 20.8385 12.9482 21.2656 12.9482C21.6927 12.9482 22.0417 12.6305 22.3125 11.9951C22.1667 11.2243 21.7812 10.8389 21.1562 10.8389C20.5208 11.0368 20.2031 11.4222 20.2031 11.9951ZM12.2031 16.5732C12.2031 18.6253 13.3802 20.0524 15.7344 20.8545H17.6406C19.9219 20.0316 21.0625 18.5732 21.0625 16.4795V16.2764C21.0625 15.0889 20.4583 13.9795 19.25 12.9482C18.4271 12.3753 17.5729 12.0889 16.6875 12.0889H16.5938C14.625 12.0889 13.2552 13.1045 12.4844 15.1357C12.3802 15.2712 12.2865 15.7503 12.2031 16.5732ZM16.5938 13.6045H16.6875C18.0625 13.6045 18.9844 14.3389 19.4531 15.8076C19.5156 15.891 19.5469 16.1149 19.5469 16.4795C19.2448 18.4482 18.2917 19.4326 16.6875 19.4326C15.4167 19.4326 14.4948 18.7972 13.9219 17.5264C13.8385 17.4222 13.7708 17.1045 13.7188 16.5732C13.9479 14.5941 14.9062 13.6045 16.5938 13.6045Z" fill="#E6E0E9"/>
</svg>
