<svg width="46" height="40" viewBox="0 0 46 40" fill="none" xmlns="http://www.w3.org/2000/svg">
<path d="M26.9876 19.6012C26.9876 17.4602 25.1975 15.7242 22.989 15.7242C20.7808 15.7242 18.9904 17.4602 18.9904 19.6012C18.9904 21.7426 20.7808 23.4784 22.989 23.4784C25.1975 23.4784 26.9876 21.7426 26.9876 19.6012Z" fill="#53C1DE"/>
<path fill-rule="evenodd" clip-rule="evenodd" d="M35.9757 12.4031C36.8201 9.07613 37.8815 2.90658 34.1397 0.814912C30.4154 -1.26764 25.569 2.72292 23.0098 5.11824C20.4581 2.74678 15.4755 -1.22671 11.737 0.871603C8.01412 2.96114 9.16216 9.0284 10.0253 12.3763C6.55252 13.3326 0.599396 15.3924 0.599396 19.6009C0.599396 23.7975 6.54633 26.0386 9.99855 26.994C9.13222 30.3604 8.04166 36.341 11.7693 38.4259C15.5218 40.5238 20.4889 36.6449 23.0718 34.2233C25.6473 36.6328 30.4472 40.5371 34.1723 38.4463C37.9089 36.349 36.9357 30.2622 36.0725 26.8949C39.4191 25.9374 45.3787 23.7451 45.3787 19.6009C45.3787 15.4329 39.3937 13.3563 35.9757 12.4031ZM35.5515 25.1104C34.9847 23.3709 34.2197 21.5211 33.284 19.6102C34.1772 17.7444 34.9125 15.9184 35.4634 14.1901C37.9691 14.8945 43.4659 16.5043 43.4659 19.6009C43.4659 22.7267 38.1911 24.3517 35.5515 25.1104ZM33.2137 36.8411C30.4344 38.401 26.3059 34.6673 24.4038 32.8929C25.6657 31.5548 26.9267 29.9992 28.1573 28.2717C30.3223 28.0856 32.3673 27.7811 34.2221 27.3654C34.8296 29.7472 36.0052 35.2743 33.2137 36.8411ZM12.7251 36.8189C9.94549 35.2649 11.2159 29.9281 11.8533 27.4484C13.6874 27.8418 15.7178 28.1248 17.8878 28.2955C19.1265 29.9857 20.4241 31.5394 21.7317 32.9001C20.1162 34.4153 15.5176 38.3801 12.7251 36.8189ZM2.5122 19.6009C2.5122 16.4636 7.97615 14.8654 10.539 14.1628C11.0994 15.9299 11.8345 17.7777 12.7215 19.6462C11.823 21.5424 11.0774 23.4194 10.5118 25.2075C8.06813 24.5292 2.5122 22.7403 2.5122 19.6009ZM12.6953 2.47679C15.4863 0.910442 19.8167 4.72515 21.6694 6.44214C20.3686 7.79658 19.083 9.33857 17.8548 11.0191C15.7488 11.2084 13.7328 11.5123 11.8794 11.9195C11.1841 9.21932 9.90741 4.04146 12.6953 2.47679ZM29.5258 13.0351C30.9546 13.2099 32.3235 13.4424 33.6088 13.7269C33.2229 14.9261 32.742 16.1801 32.1755 17.4656C31.3544 15.955 30.473 14.4748 29.5258 13.0351ZM23.0104 7.76756C23.8927 8.6943 24.7764 9.72919 25.6457 10.852C23.8824 10.7711 22.1163 10.7708 20.3531 10.8508C21.2231 9.73842 22.1144 8.70506 23.0104 7.76756ZM13.819 17.4642C13.2619 16.1832 12.7853 14.9237 12.3961 13.7074C13.6737 13.4302 15.0363 13.2036 16.4558 13.0317C15.5058 14.4682 14.6259 15.9479 13.819 17.4642ZM16.4965 26.3026C15.0301 26.144 13.647 25.9289 12.3697 25.6593C12.7651 24.4216 13.2522 23.1349 13.8212 21.8263C14.6392 23.3585 15.5326 24.8525 16.4965 26.3026ZM23.0634 31.5654C22.1568 30.6168 21.2524 29.5676 20.3692 28.4392C22.1424 28.5067 23.9191 28.5068 25.6922 28.4301C24.8202 29.5791 23.9397 30.6298 23.0634 31.5654ZM32.1938 21.7598C32.7923 23.0825 33.2968 24.3622 33.6976 25.579C32.3991 25.8663 30.9974 26.0977 29.5204 26.2695C30.4747 24.8025 31.3701 23.2993 32.1938 21.7598ZM27.0898 26.4943C24.3774 26.6822 21.6481 26.6801 18.9347 26.5097C17.393 24.3261 16.0205 22.0296 14.8358 19.6456C16.0148 17.2665 17.3773 14.9745 18.9118 12.7943C21.627 12.5954 24.359 12.5948 27.0743 12.7955C28.5956 14.9755 29.956 17.2615 31.1623 19.6192C29.9703 21.9971 28.6007 24.2937 27.0898 26.4943ZM33.1843 2.42165C35.976 3.98287 34.7333 9.52763 34.1234 11.9388C32.2657 11.5231 30.2482 11.2138 28.1361 11.0215C26.9056 9.32281 25.6307 7.77813 24.351 6.44118C26.2274 4.68721 30.4196 0.875708 33.1843 2.42165Z" fill="#53C1DE"/>
</svg>
