<svg width="46" height="40" viewBox="0 0 46 40" fill="none" xmlns="http://www.w3.org/2000/svg">
<path d="M43.7489 30.6584C41.3234 31.9227 28.7583 37.089 26.0831 38.4835C23.4082 39.8783 21.9221 39.8648 19.8089 38.8546C17.6957 37.8443 4.32416 32.4431 1.91553 31.2919C0.711575 30.7165 0.0786133 30.2309 0.0786133 29.7721V25.178C0.0786133 25.178 17.4866 21.3882 20.297 20.3801C23.1072 19.3718 24.0823 19.3354 26.4739 20.2114C28.8657 21.0876 43.166 23.6678 45.5297 24.5335C45.5297 24.5335 45.5287 28.6366 45.5287 29.0626C45.529 29.5168 44.9836 30.015 43.7489 30.6584Z" fill="#912626"/>
<path d="M43.7481 26.0917C41.3227 27.3555 28.7579 32.522 26.0829 33.9164C23.408 35.3114 21.922 35.2977 19.8088 34.2875C17.6955 33.278 4.32459 27.8759 1.91604 26.7252C-0.492516 25.5738 -0.543115 24.7815 1.823 23.855C4.18894 22.9283 17.4866 17.7112 20.2973 16.7029C23.1074 15.695 24.0823 15.6582 26.4738 16.5346C28.8655 17.4106 41.3553 22.382 43.7188 23.2475C46.0828 24.1141 46.1735 24.8274 43.7481 26.0917Z" fill="#C6302B"/>
<path d="M43.7489 23.2245C41.3234 24.4888 28.7583 29.6551 26.0831 31.0501C23.4082 32.4444 21.9221 32.4309 19.8089 31.4207C17.6956 30.411 4.32416 25.0092 1.91553 23.858C0.711575 23.2826 0.0786133 22.7975 0.0786133 22.3387V17.7441C0.0786133 17.7441 17.4866 13.9545 20.297 12.9462C23.1072 11.9381 24.0823 11.9015 26.4739 12.7775C28.8657 13.6537 43.166 16.2333 45.5297 17.0992C45.5297 17.0992 45.5287 21.2024 45.5287 21.6289C45.529 22.0829 44.9836 22.5811 43.7489 23.2245Z" fill="#912626"/>
<path d="M43.7481 18.6577C41.3227 19.9218 28.7579 25.0879 26.0829 26.4829C23.408 27.8773 21.922 27.8637 19.8088 26.8534C17.6955 25.8439 4.32459 20.442 1.91604 19.2912C-0.492516 18.1401 -0.543115 17.3476 1.823 16.4208C4.18894 15.4946 17.4866 10.2771 20.2973 9.26901C23.1074 8.26092 24.0823 8.22435 26.4738 9.10052C28.8655 9.97652 41.3553 14.9476 43.7188 15.8134C46.0828 16.6797 46.1735 17.3936 43.7481 18.6577Z" fill="#C6302B"/>
<path d="M43.7489 15.5155C41.3234 16.7799 28.7583 21.9464 26.0831 23.3414C23.4082 24.7358 21.9221 24.7222 19.8089 23.7119C17.6956 22.7022 4.32416 17.3003 1.91553 16.1494C0.711575 15.5738 0.0786133 15.0885 0.0786133 14.6301V10.0353C0.0786133 10.0353 17.4866 6.24588 20.297 5.23775C23.1072 4.22945 24.0823 4.19306 26.4739 5.06908C28.8657 5.94529 43.166 8.5249 45.5297 9.3908C45.5297 9.3908 45.5287 13.494 45.5287 13.9203C45.529 14.3739 44.9836 14.8721 43.7489 15.5155Z" fill="#912626"/>
<path d="M43.7486 10.9482C41.3232 12.2123 28.7585 17.3789 26.0834 18.7735C23.4086 20.1679 21.9225 20.1542 19.8094 19.1443C17.6963 18.1345 4.32514 12.7329 1.91659 11.5819C-0.491966 10.4309 -0.542566 9.63815 1.82355 8.71155C4.18949 7.78513 17.4871 2.5682 20.2978 1.55975C23.108 0.551482 24.0829 0.515263 26.4744 1.39144C28.8661 2.26762 41.3559 7.23865 43.7193 8.10453C46.0833 8.97023 46.174 9.68413 43.7486 10.9482Z" fill="#C6302B"/>
<path d="M28.3584 6.47952L24.4509 6.88524L23.576 8.99008L22.163 6.64124L17.6508 6.23571L21.0177 5.02156L20.0076 3.15771L23.1597 4.39053L26.1315 3.41756L25.3284 5.34483L28.3584 6.47952Z" fill="white"/>
<path d="M23.3425 16.6913L16.0496 13.6665L26.5 12.0625L23.3425 16.6913Z" fill="white"/>
<path d="M13.2314 7.64954C16.3162 7.64954 18.8169 8.61898 18.8169 9.81463C18.8169 11.0105 16.3162 11.9797 13.2314 11.9797C10.1467 11.9797 7.64581 11.0105 7.64581 9.81463C7.64581 8.61898 10.1467 7.64954 13.2314 7.64954Z" fill="white"/>
<path d="M32.9767 7.05518L39.1616 9.49932L32.982 11.941L32.9767 7.05518Z" fill="#621B1C"/>
<path d="M26.1343 9.76181L32.9768 7.05518L32.9821 11.941L32.3112 12.2035L26.1343 9.76181Z" fill="#9A2928"/>
</svg>
