<svg width="66" height="40" viewBox="0 0 66 40" fill="none" xmlns="http://www.w3.org/2000/svg">
<path fill-rule="evenodd" clip-rule="evenodd" d="M32.9636 0.232544C24.3027 0.232544 18.9073 4.53937 16.7302 13.153C19.9958 8.84619 23.782 7.23705 28.1362 8.27826C30.5972 8.89352 32.3957 10.692 34.3361 12.6324C37.5071 15.898 41.1987 19.6369 49.2444 19.6369C57.9054 19.6369 63.348 15.3301 65.5251 6.71645C62.2595 11.0233 58.4733 12.6324 54.1665 11.5439C51.7054 10.9286 49.907 9.13016 47.9665 7.18972C44.7482 3.97144 41.0567 0.232544 32.9636 0.232544ZM16.7302 19.6369C8.0219 19.6369 2.62654 23.9438 0.449463 32.5574C3.71508 28.2506 7.5013 26.6414 11.8555 27.6826C14.3165 28.2979 16.115 30.0964 18.0554 32.0368C21.2263 35.3024 24.9179 39.0413 32.9636 39.0413C41.6246 39.0413 47.0673 34.7345 49.2444 26.1208C45.9788 30.4277 42.1925 32.0368 37.8384 30.9483C35.3773 30.333 33.5789 28.5345 31.6385 26.5941C28.4675 23.3758 24.7759 19.6369 16.7302 19.6369Z" fill="#38BDF8"/>
</svg>
