<svg width="40" height="40" viewBox="0 0 40 40" fill="none" xmlns="http://www.w3.org/2000/svg">
<path d="M33.7199 0.698242H6.5538C3.33877 0.698242 0.732483 3.30453 0.732483 6.51956V33.6857C0.732483 36.9007 3.33877 39.507 6.5538 39.507H33.7199C36.935 39.507 39.5412 36.9007 39.5412 33.6857V6.51956C39.5412 3.30453 36.935 0.698242 33.7199 0.698242Z" fill="#3178C6"/>
<path d="M18.3934 22.2247H23.2445V19.117H9.67664V22.2247H14.5277V36.0958H18.3934V22.2247ZM24.7605 35.3378C25.3745 35.6562 26.1249 35.8912 26.9587 36.0503C27.7924 36.2095 28.702 36.2853 29.6116 36.2853C30.5212 36.2853 31.355 36.2019 32.1887 36.0276C33.0225 35.8533 33.7047 35.5652 34.3111 35.1938C34.9251 34.7921 35.4481 34.2842 35.7513 33.6021C36.0545 32.9199 36.2894 32.1619 36.2894 31.1765C36.2894 30.4867 36.1833 29.8879 35.9787 29.3574C35.774 28.8268 35.4784 28.372 35.0691 27.993C34.6825 27.5913 34.2353 27.235 33.7047 26.9318C33.1741 26.6286 32.5677 26.3103 31.8856 26.0222C31.3853 25.8176 30.976 25.6205 30.5212 25.4234C30.127 25.2263 29.7859 25.0293 29.5358 24.8322C29.2554 24.6275 29.0431 24.4153 28.8915 24.1955C28.7399 23.9681 28.6641 23.718 28.6641 23.4375C28.6641 23.1798 28.7316 22.9448 28.8688 22.7326C29.006 22.5203 29.1947 22.346 29.4373 22.1944C29.6798 22.0428 29.983 21.9291 30.3468 21.8457C30.7031 21.7624 31.0973 21.7245 31.5596 21.7245C31.878 21.7245 32.2115 21.748 32.545 21.7957C32.8937 21.8435 33.2499 21.917 33.6062 22.0155C33.9624 22.1141 34.3111 22.2353 34.6674 22.3869C35.0009 22.5385 35.3116 22.7129 35.5769 22.9099V19.3474C35.0009 19.1276 34.3642 18.9609 33.682 18.8547C32.9998 18.7486 32.2418 18.6956 31.3322 18.6956C30.4226 18.6956 29.5889 18.7941 28.7551 18.9836C27.9213 19.1731 27.2391 19.4763 26.6327 19.8932C26.0188 20.3025 25.5716 20.8027 25.1926 21.4849C24.8363 22.1216 24.662 22.8493 24.662 23.7589C24.662 24.8959 24.9879 25.8812 25.6474 26.6392C26.2992 27.473 27.3149 28.0794 28.6035 28.6858C29.1265 28.898 29.5889 29.1103 30.0437 29.3149C30.4984 29.5196 30.8774 29.7318 31.1806 29.9516C31.5066 30.1714 31.7643 30.414 31.9386 30.6717C32.1281 30.9294 32.2266 31.2326 32.2266 31.5813C32.2266 31.8238 32.1675 32.0512 32.0523 32.2635C31.9371 32.4757 31.7567 32.6576 31.5141 32.8092C31.2716 32.9608 30.976 33.0821 30.6046 33.173C30.2483 33.2564 29.8466 33.3019 29.316 33.3019C28.4822 33.3019 27.6484 33.1579 26.8904 32.8698C26.0567 32.5818 25.2987 32.1498 24.7605 31.6995V35.3378Z" fill="white"/>
</svg>
